<?xml version="1.0" encoding="UTF-8"?> <svg xmlns="http://www.w3.org/2000/svg" width="164" height="61" viewBox="0 0 164 61" fill="none"><path d="M90.3783 41.1463C90.1406 37.9962 86.8725 35.76 82.8715 35.76C77.088 35.76 73.4237 39.8046 73.4237 44.4715C73.4237 49.1578 76.7314 53.183 82.5546 53.183C86.6546 53.183 90.715 50.8301 90.8536 45.1715H80.0193V47.3688L88.3976 46.7855C88.3778 49.6245 85.7237 51.3162 82.515 51.3162C78.2565 51.3162 75.8203 48.6328 75.8203 44.4715C75.8203 40.6213 78.4546 37.6462 82.8319 37.6462C85.7237 37.6462 87.744 39.0462 87.843 41.1658L90.3783 41.1463ZM93.4879 52.8524H95.845V45.5799H99.3507L105.907 52.8524H108.917L101.945 45.3271C104.718 44.9576 107.491 43.5381 107.491 40.6991C107.491 37.4323 103.906 36.0516 100.361 36.0516H93.4681L93.4879 52.8524ZM95.7855 37.9962L100.242 38.0156C102.559 38.0351 105.015 38.6379 105.015 40.7574C105.015 42.6631 102.757 43.5381 100.262 43.5575L95.7657 43.577L95.7855 37.9962ZM119.375 37.4906C123.277 37.4906 126.644 40.0379 126.644 44.4326C126.644 48.3605 123.753 51.3162 119.375 51.3162C115.018 51.3162 112.087 48.38 112.087 44.4326C112.087 40.0185 115.473 37.4906 119.375 37.4906ZM119.375 35.5461C113.612 35.5461 109.65 39.6685 109.65 44.452C109.65 49.9551 114.186 53.2802 119.375 53.2802C124.505 53.2802 129.1 49.9162 129.1 44.452C129.1 39.6685 125.159 35.5461 119.375 35.5461ZM131.715 36.0128V46.4549C131.715 50.9857 135.538 53.2219 139.261 53.2219C142.629 53.2219 146.788 51.4135 146.788 46.4355V36.0128H144.49V46.5327C144.49 48.4578 143.163 51.1801 139.261 51.1801C136.746 51.1801 134.092 49.8578 134.092 46.5716V36.0322H131.715V36.0128ZM150.115 52.8524H152.492V46.5132H156.216C160.257 46.5132 164 44.8409 164 41.2436C164 37.6462 160.395 36.0516 156.374 36.0516H150.115V52.8524ZM152.453 37.9962L156.414 38.0156C158.731 38.0351 161.485 38.7351 161.485 41.2241C161.485 43.7131 158.751 44.452 156.176 44.4715L152.453 44.4909V37.9962Z" fill="white"></path><path d="M73.4435 19.8731C73.5425 23.8594 77.7614 25.3567 80.9899 25.3567C85.6247 25.3567 88.3976 23.3538 88.3976 20.4176C88.3976 16.8202 84.0797 16.0035 81.4652 15.4785C78.4942 14.8757 76.3947 14.1367 76.3947 12.3867C76.3947 10.831 78.1971 9.64487 81.0493 9.64487C83.2874 9.64487 85.5256 10.5199 85.6841 12.62H88.1995C87.9618 9.43097 84.872 7.71979 81.1285 7.71979C77.3058 7.71979 74.0377 9.41153 74.0377 12.5422C74.0377 15.9257 78.3952 17.0924 80.9502 17.5786C84.0995 18.1814 86.001 18.862 86.001 20.6704C86.001 22.0315 84.4561 23.3733 81.0889 23.3733C77.1474 23.3733 76.0382 21.2343 76.0184 19.8731H73.4435ZM98.2415 24.9483V10.1116H104.58V8.12813H89.5068V10.1116H95.8846V24.9483H98.2415ZM117.85 24.9483H120.366L112.859 8.12813H110.205L102.916 24.9483H105.392L107.095 20.8648H116.068L117.85 24.9483ZM111.472 10.481H111.611L115.236 18.9397H107.927L111.472 10.481ZM122.505 24.9483H124.862V17.6758H128.368L134.924 24.9483H137.934L130.962 17.423C133.735 17.0535 136.508 15.634 136.508 12.795C136.508 9.5282 132.923 8.14757 129.398 8.14757H122.505V24.9483ZM124.802 10.1116L129.259 10.131C131.576 10.1504 134.032 10.7533 134.032 12.8728C134.032 14.7784 131.774 15.6535 129.279 15.6729L124.783 15.6924L124.802 10.1116Z" fill="white"></path><path fill-rule="evenodd" clip-rule="evenodd" d="M31.0768 13.3201C25.8478 25.065 13.9044 33.271 0.0198261 33.271V27.729C10.6957 27.729 20.0048 21.9149 24.7981 13.3201H31.0768Z" fill="white"></path><path fill-rule="evenodd" clip-rule="evenodd" d="M33.8894 61C33.8894 42.6242 18.7174 27.729 0 27.729V33.271C15.5879 33.271 28.2445 45.6771 28.2445 61H33.8894Z" fill="white"></path><path fill-rule="evenodd" clip-rule="evenodd" d="M31.0768 47.68C36.3058 35.935 48.2493 27.729 62.1338 27.729V33.271C51.458 33.271 42.1488 39.0851 37.3556 47.68H31.0768Z" fill="white"></path><path fill-rule="evenodd" clip-rule="evenodd" d="M28.2445 0C28.2445 18.3758 43.4164 33.271 62.1338 33.271V27.729C46.5459 27.729 33.8894 15.3229 33.8894 0H28.2445Z" fill="white"></path></svg> 