<?xml version="1.0" encoding="UTF-8"?> <svg xmlns="http://www.w3.org/2000/svg" width="220" height="83" viewBox="0 0 220 83" fill="none"><path d="M121.239 55.986C120.92 51.6997 116.536 48.657 111.169 48.657C103.411 48.657 98.4952 54.1604 98.4952 60.5104C98.4952 66.8869 102.932 72.3637 110.744 72.3637C116.244 72.3637 121.691 69.1623 121.877 61.4629H107.343V64.4527L118.582 63.6589C118.556 67.5219 114.995 69.8237 110.691 69.8237C104.978 69.8237 101.71 66.1725 101.71 60.5104C101.71 55.2716 105.244 51.2235 111.116 51.2235C114.995 51.2235 117.705 53.1285 117.838 56.0125L121.239 55.986ZM125.411 71.9139H128.573V62.0185H133.275L142.07 71.9139H146.109L136.756 61.6746C140.476 61.1718 144.196 59.2404 144.196 55.3774C144.196 50.9324 139.386 49.0539 134.63 49.0539H125.384L125.411 71.9139ZM128.493 51.6997L134.471 51.7262C137.58 51.7526 140.874 52.5729 140.874 55.4568C140.874 58.0498 137.845 59.2404 134.498 59.2668L128.466 59.2933L128.493 51.6997ZM160.138 51.0118C165.372 51.0118 169.889 54.4778 169.889 60.4574C169.889 65.802 166.01 69.8237 160.138 69.8237C154.292 69.8237 150.36 65.8285 150.36 60.4574C150.36 54.4514 154.903 51.0118 160.138 51.0118ZM160.138 48.366C152.406 48.366 147.092 53.9752 147.092 60.4839C147.092 67.9717 153.176 72.496 160.138 72.496C167.019 72.496 173.184 67.9187 173.184 60.4839C173.184 53.9752 167.896 48.366 160.138 48.366ZM176.691 49.001V63.2091C176.691 69.3739 181.819 72.4167 186.814 72.4167C191.331 72.4167 196.911 69.956 196.911 63.1827V49.001H193.829V63.315C193.829 65.9343 192.048 69.6385 186.814 69.6385C183.44 69.6385 179.879 67.8393 179.879 63.3679V49.0274H176.691V49.001ZM201.374 71.9139H204.563V63.2885H209.558C214.978 63.2885 220 61.0131 220 56.1183C220 51.2235 215.164 49.0539 209.771 49.0539H201.374V71.9139ZM204.51 51.6997L209.824 51.7262C212.932 51.7526 216.626 52.7051 216.626 56.0918C216.626 59.4785 212.959 60.4839 209.505 60.5104L204.51 60.5368V51.6997Z" fill="#003C8B"></path><path d="M98.5218 27.0405C98.6546 32.4644 104.314 34.5017 108.645 34.5017C114.862 34.5017 118.582 31.7765 118.582 27.7813C118.582 22.8865 112.79 21.7752 109.283 21.0609C105.297 20.2407 102.481 19.2352 102.481 16.854C102.481 14.7373 104.899 13.1233 108.725 13.1233C111.727 13.1233 114.729 14.314 114.942 17.1715H118.316C117.998 12.8323 113.853 10.504 108.831 10.504C103.703 10.504 99.3189 12.8059 99.3189 17.0657C99.3189 21.6694 105.164 23.2569 108.592 23.9184C112.816 24.7386 115.367 25.6646 115.367 28.1253C115.367 29.9773 113.295 31.803 108.778 31.803C103.49 31.803 102.002 28.8926 101.976 27.0405H98.5218ZM131.787 33.9461V13.7584H140.29V11.0596H120.07V13.7584H128.626V33.9461H131.787ZM158.092 33.9461H161.466L151.396 11.0596H147.836L138.058 33.9461H141.379L143.664 28.3898H155.7L158.092 33.9461ZM149.536 14.2611H149.722L154.585 25.7705H144.78L149.536 14.2611ZM164.336 33.9461H167.498V24.0507H172.201L180.995 33.9461H185.034L175.681 23.7067C179.401 23.204 183.121 21.2725 183.121 17.4096C183.121 12.9646 178.312 11.086 173.582 11.086H164.336V33.9461ZM167.418 13.7584L173.396 13.7848C176.505 13.8113 179.8 14.6315 179.8 17.5154C179.8 20.1084 176.771 21.299 173.423 21.3254L167.391 21.3519L167.418 13.7584Z" fill="#003C8B"></path><path fill-rule="evenodd" clip-rule="evenodd" d="M41.6884 18.124C34.6739 34.1049 18.6522 45.2703 0.026596 45.2703V37.7297C14.3479 37.7297 26.8358 29.8186 33.2657 18.124H41.6884Z" fill="#003C8B"></path><path fill-rule="evenodd" clip-rule="evenodd" d="M45.4614 83C45.4614 57.9968 25.1087 37.7297 0 37.7297V45.2703C20.9106 45.2703 37.8889 62.1508 37.8889 83H45.4614Z" fill="#009D86"></path><path fill-rule="evenodd" clip-rule="evenodd" d="M41.6884 64.876C48.7029 48.8951 64.7246 37.7297 83.3502 37.7297V45.2703C69.029 45.2703 56.5411 53.1814 50.1111 64.876H41.6884Z" fill="#003C8B"></path><path fill-rule="evenodd" clip-rule="evenodd" d="M37.8889 0C37.8889 25.0032 58.2415 45.2703 83.3502 45.2703V37.7297C62.4396 37.7297 45.4614 20.8492 45.4614 0H37.8889Z" fill="#009D86"></path></svg> 